# This file uses centimeters as units for non-parametric coordinates.

mtllib segmentv24paint.mtl
g default
v -2.061752 -2.807313 2.061752
v 2.061752 -2.807313 2.061752
v -2.500000 -0.434436 2.500000
v 2.500000 -0.434436 2.500000
v -2.500000 -0.434436 -2.500000
v 2.500000 -0.434436 -2.500000
v -2.061752 -2.807313 -2.061752
v 2.061752 -2.807313 -2.061752
v -1.708333 -0.434436 1.708333
v 1.708333 -0.434436 1.708333
v 1.708333 -0.434436 -1.708333
v -1.708333 -0.434436 -1.708333
v -1.708333 1.226051 1.708333
v 1.708333 1.226051 1.708333
v 1.708333 1.226051 -1.708333
v -1.708333 1.226051 -1.708333
v -2.505556 1.226051 2.505556
v 2.505556 1.226051 2.505556
v 2.505556 1.226051 -2.505556
v -2.505556 1.226051 -2.505556
v -2.227082 3.587129 2.227082
v 2.227082 3.587129 2.227082
v 2.227082 3.587129 -2.227082
v -2.227082 3.587129 -2.227082
v 0.018451 -0.510916 1.976632
v -1.355495 -1.597651 1.976632
v 0.018451 -2.684386 1.976632
v 1.392397 -1.597651 1.976632
v 0.018451 -1.597651 4.252692
v 0.029805 3.499472 2.063716
v -1.344141 2.412737 2.063716
v 0.029805 1.326002 2.063716
v 1.403751 2.412737 2.063716
v 0.029805 2.412737 4.339777
v 2.156840 3.499472 -0.181380
v 2.156840 2.412737 1.192566
v 2.156840 1.326002 -0.181380
v 2.156840 2.412737 -1.555326
v 4.432901 2.412737 -0.181380
v 2.156840 -0.567675 -0.065329
v 2.156840 -1.654410 1.308617
v 2.156840 -2.741145 -0.065329
v 2.156840 -1.654410 -1.439275
v 4.432901 -1.654410 -0.065329
v -2.049460 3.499472 0.043238
v -2.049460 2.412737 -1.330708
v -2.049460 1.326002 0.043238
v -2.049460 2.412737 1.417184
v -4.325521 2.412737 0.043238
v -2.049460 -0.450615 0.043238
v -2.049460 -1.537350 -1.330708
v -2.049460 -2.624085 0.043238
v -2.049460 -1.537350 1.417184
v -4.325521 -1.537350 0.043238
v -0.010639 3.499472 -2.056082
v 1.363307 2.412737 -2.056082
v -0.010639 1.326002 -2.056082
v -1.384585 2.412737 -2.056082
v -0.010639 2.412737 -4.332143
v -0.010639 -0.587360 -2.056082
v 1.363307 -1.674095 -2.056082
v -0.010639 -2.760830 -2.056082
v -1.384585 -1.674095 -2.056082
v -0.010639 -1.674095 -4.332143
vt 0.375000 0.000000
vt 0.625000 0.000000
vt 0.375000 0.250000
vt 0.625000 0.250000
vt 0.375000 0.500000
vt 0.625000 0.500000
vt 0.375000 0.750000
vt 0.625000 0.750000
vt 0.375000 1.000000
vt 0.625000 1.000000
vt 0.875000 0.000000
vt 0.875000 0.250000
vt 0.125000 0.000000
vt 0.125000 0.250000
vt 0.375000 0.250000
vt 0.625000 0.250000
vt 0.625000 0.500000
vt 0.375000 0.500000
vt 0.375000 0.250000
vt 0.625000 0.250000
vt 0.625000 0.500000
vt 0.375000 0.500000
vt 0.375000 0.250000
vt 0.625000 0.250000
vt 0.625000 0.500000
vt 0.375000 0.500000
vt 0.375000 0.250000
vt 0.625000 0.250000
vt 0.625000 0.500000
vt 0.375000 0.500000
vt 0.250000 0.500000
vt 0.375000 0.500000
vt 0.500000 1.000000
vt 0.500000 0.500000
vt 0.625000 0.500000
vt 0.750000 0.500000
vt 0.250000 0.500000
vt 0.375000 0.500000
vt 0.500000 1.000000
vt 0.500000 0.500000
vt 0.625000 0.500000
vt 0.750000 0.500000
vt 0.250000 0.500000
vt 0.375000 0.500000
vt 0.500000 1.000000
vt 0.500000 0.500000
vt 0.625000 0.500000
vt 0.750000 0.500000
vt 0.250000 0.500000
vt 0.375000 0.500000
vt 0.500000 1.000000
vt 0.500000 0.500000
vt 0.625000 0.500000
vt 0.750000 0.500000
vt 0.250000 0.500000
vt 0.375000 0.500000
vt 0.500000 1.000000
vt 0.500000 0.500000
vt 0.625000 0.500000
vt 0.750000 0.500000
vt 0.250000 0.500000
vt 0.375000 0.500000
vt 0.500000 1.000000
vt 0.500000 0.500000
vt 0.625000 0.500000
vt 0.750000 0.500000
vt 0.250000 0.500000
vt 0.375000 0.500000
vt 0.500000 1.000000
vt 0.500000 0.500000
vt 0.625000 0.500000
vt 0.750000 0.500000
vt 0.250000 0.500000
vt 0.375000 0.500000
vt 0.500000 1.000000
vt 0.500000 0.500000
vt 0.625000 0.500000
vt 0.750000 0.500000
vn 0.000000 -0.181619 0.983369
vn 0.000000 -0.181619 0.983369
vn 0.000000 -0.181619 0.983369
vn 0.000000 -0.181619 0.983369
vn 0.000000 1.000000 0.000000
vn 0.000000 1.000000 0.000000
vn 0.000000 1.000000 0.000000
vn 0.000000 1.000000 0.000000
vn 0.000000 -0.181619 -0.983369
vn 0.000000 -0.181619 -0.983369
vn 0.000000 -0.181619 -0.983369
vn 0.000000 -0.181619 -0.983369
vn 0.000000 -1.000000 0.000000
vn 0.000000 -1.000000 0.000000
vn 0.000000 -1.000000 0.000000
vn 0.000000 -1.000000 0.000000
vn 0.983369 -0.181619 0.000000
vn 0.983369 -0.181619 0.000000
vn 0.983369 -0.181619 0.000000
vn 0.983369 -0.181619 0.000000
vn -0.983369 -0.181619 0.000000
vn -0.983369 -0.181619 0.000000
vn -0.983369 -0.181619 0.000000
vn -0.983369 -0.181619 0.000000
vn 0.000000 1.000000 -0.000000
vn 0.000000 1.000000 -0.000000
vn 0.000000 1.000000 -0.000000
vn 0.000000 1.000000 -0.000000
vn 0.000000 1.000000 0.000000
vn 0.000000 1.000000 0.000000
vn 0.000000 1.000000 0.000000
vn 0.000000 1.000000 0.000000
vn 0.000000 0.000000 1.000000
vn 0.000000 0.000000 1.000000
vn 0.000000 0.000000 1.000000
vn 0.000000 0.000000 1.000000
vn 1.000000 0.000000 0.000000
vn 1.000000 0.000000 0.000000
vn 1.000000 0.000000 0.000000
vn 1.000000 0.000000 0.000000
vn 0.000000 0.000000 -1.000000
vn 0.000000 0.000000 -1.000000
vn 0.000000 0.000000 -1.000000
vn 0.000000 0.000000 -1.000000
vn -1.000000 0.000000 0.000000
vn -1.000000 0.000000 0.000000
vn -1.000000 0.000000 0.000000
vn -1.000000 0.000000 0.000000
vn 0.000000 -1.000000 -0.000000
vn 0.000000 -1.000000 -0.000000
vn 0.000000 -1.000000 -0.000000
vn 0.000000 -1.000000 -0.000000
vn 0.000000 -1.000000 0.000000
vn 0.000000 -1.000000 0.000000
vn 0.000000 -1.000000 0.000000
vn 0.000000 -1.000000 0.000000
vn 0.000000 0.117131 0.993116
vn 0.000000 0.117131 0.993116
vn 0.000000 0.117131 0.993116
vn 0.000000 0.117131 0.993116
vn 0.993116 0.117131 0.000000
vn 0.993116 0.117131 0.000000
vn 0.993116 0.117131 0.000000
vn 0.993116 0.117131 0.000000
vn 0.000000 0.117131 -0.993116
vn 0.000000 0.117131 -0.993116
vn 0.000000 0.117131 -0.993116
vn 0.000000 0.117131 -0.993116
vn -0.993116 0.117131 0.000000
vn -0.993116 0.117131 0.000000
vn -0.993116 0.117131 0.000000
vn -0.993116 0.117131 0.000000
vn -0.580962 0.734503 0.350698
vn -0.580962 0.734503 0.350698
vn -0.580962 0.734503 0.350698
vn -0.580962 -0.734503 0.350698
vn -0.580962 -0.734503 0.350698
vn -0.580962 -0.734503 0.350698
vn 0.580962 -0.734503 0.350698
vn 0.580962 -0.734503 0.350698
vn 0.580962 -0.734503 0.350698
vn 0.580962 0.734503 0.350698
vn 0.580962 0.734503 0.350698
vn 0.580962 0.734503 0.350698
vn -0.580962 0.734503 0.350698
vn -0.580962 0.734503 0.350698
vn -0.580962 0.734503 0.350698
vn -0.580962 -0.734503 0.350698
vn -0.580962 -0.734503 0.350698
vn -0.580962 -0.734503 0.350698
vn 0.580962 -0.734503 0.350698
vn 0.580962 -0.734503 0.350698
vn 0.580962 -0.734503 0.350698
vn 0.580962 0.734503 0.350698
vn 0.580962 0.734503 0.350698
vn 0.580962 0.734503 0.350698
vn 0.350698 0.734503 0.580961
vn 0.350698 0.734503 0.580961
vn 0.350698 0.734503 0.580961
vn 0.350698 -0.734503 0.580962
vn 0.350698 -0.734503 0.580962
vn 0.350698 -0.734503 0.580962
vn 0.350698 -0.734503 -0.580962
vn 0.350698 -0.734503 -0.580962
vn 0.350698 -0.734503 -0.580962
vn 0.350698 0.734503 -0.580962
vn 0.350698 0.734503 -0.580962
vn 0.350698 0.734503 -0.580962
vn 0.350698 0.734503 0.580962
vn 0.350698 0.734503 0.580962
vn 0.350698 0.734503 0.580962
vn 0.350698 -0.734503 0.580962
vn 0.350698 -0.734503 0.580962
vn 0.350698 -0.734503 0.580962
vn 0.350698 -0.734503 -0.580962
vn 0.350698 -0.734503 -0.580962
vn 0.350698 -0.734503 -0.580962
vn 0.350698 0.734503 -0.580962
vn 0.350698 0.734503 -0.580962
vn 0.350698 0.734503 -0.580962
vn -0.350698 0.734503 -0.580961
vn -0.350698 0.734503 -0.580961
vn -0.350698 0.734503 -0.580961
vn -0.350698 -0.734503 -0.580962
vn -0.350698 -0.734503 -0.580962
vn -0.350698 -0.734503 -0.580962
vn -0.350698 -0.734503 0.580962
vn -0.350698 -0.734503 0.580962
vn -0.350698 -0.734503 0.580962
vn -0.350698 0.734503 0.580962
vn -0.350698 0.734503 0.580962
vn -0.350698 0.734503 0.580962
vn -0.350698 0.734503 -0.580962
vn -0.350698 0.734503 -0.580962
vn -0.350698 0.734503 -0.580962
vn -0.350698 -0.734503 -0.580962
vn -0.350698 -0.734503 -0.580962
vn -0.350698 -0.734503 -0.580962
vn -0.350698 -0.734503 0.580962
vn -0.350698 -0.734503 0.580962
vn -0.350698 -0.734503 0.580962
vn -0.350698 0.734503 0.580962
vn -0.350698 0.734503 0.580962
vn -0.350698 0.734503 0.580962
vn 0.580962 0.734503 -0.350698
vn 0.580962 0.734503 -0.350698
vn 0.580962 0.734503 -0.350698
vn 0.580962 -0.734503 -0.350698
vn 0.580962 -0.734503 -0.350698
vn 0.580962 -0.734503 -0.350698
vn -0.580962 -0.734503 -0.350698
vn -0.580962 -0.734503 -0.350698
vn -0.580962 -0.734503 -0.350698
vn -0.580962 0.734503 -0.350698
vn -0.580962 0.734503 -0.350698
vn -0.580962 0.734503 -0.350698
vn 0.580962 0.734503 -0.350698
vn 0.580962 0.734503 -0.350698
vn 0.580962 0.734503 -0.350698
vn 0.580962 -0.734503 -0.350698
vn 0.580962 -0.734503 -0.350698
vn 0.580962 -0.734503 -0.350698
vn -0.580962 -0.734503 -0.350698
vn -0.580962 -0.734503 -0.350698
vn -0.580962 -0.734503 -0.350698
vn -0.580962 0.734503 -0.350698
vn -0.580962 0.734503 -0.350698
vn -0.580962 0.734503 -0.350698
s off
g segment
usemtl initialShadingGroup
f 1/1/1 2/2/2 4/4/3 3/3/4
f 21/27/5 22/28/6 23/29/7 24/30/8
f 5/5/9 6/6/10 8/8/11 7/7/12
f 7/7/13 8/8/14 2/10/15 1/9/16
f 2/2/17 8/11/18 6/12/19 4/4/20
f 7/13/21 1/1/22 3/3/23 5/14/24
s 1
f 3/3/25 4/4/26 10/16/27 9/15/28
f 4/4/26 6/6/29 11/17/30 10/16/27
f 6/6/29 5/5/31 12/18/32 11/17/30
f 5/5/31 3/3/25 9/15/28 12/18/32
s off
f 9/15/33 10/16/34 14/20/35 13/19/36
f 10/16/37 11/17/38 15/21/39 14/20/40
f 11/17/41 12/18/42 16/22/43 15/21/44
f 12/18/45 9/15/46 13/19/47 16/22/48
s 2
f 13/19/49 14/20/50 18/24/51 17/23/52
f 14/20/50 15/21/53 19/25/54 18/24/51
f 15/21/53 16/22/55 20/26/56 19/25/54
f 16/22/55 13/19/49 17/23/52 20/26/56
s off
f 17/23/57 18/24/58 22/28/59 21/27/60
f 18/24/61 19/25/62 23/29/63 22/28/64
f 19/25/65 20/26/66 24/30/67 23/29/68
f 20/26/69 17/23/70 21/27/71 24/30/72
f 25/31/73 26/32/74 29/33/75
f 26/32/76 27/34/77 29/33/78
f 27/34/79 28/35/80 29/33/81
f 28/35/82 25/36/83 29/33/84
f 30/37/85 31/38/86 34/39/87
f 31/38/88 32/40/89 34/39/90
f 32/40/91 33/41/92 34/39/93
f 33/41/94 30/42/95 34/39/96
f 35/43/97 36/44/98 39/45/99
f 36/44/100 37/46/101 39/45/102
f 37/46/103 38/47/104 39/45/105
f 38/47/106 35/48/107 39/45/108
f 40/49/109 41/50/110 44/51/111
f 41/50/112 42/52/113 44/51/114
f 42/52/115 43/53/116 44/51/117
f 43/53/118 40/54/119 44/51/120
f 45/55/121 46/56/122 49/57/123
f 46/56/124 47/58/125 49/57/126
f 47/58/127 48/59/128 49/57/129
f 48/59/130 45/60/131 49/57/132
f 50/61/133 51/62/134 54/63/135
f 51/62/136 52/64/137 54/63/138
f 52/64/139 53/65/140 54/63/141
f 53/65/142 50/66/143 54/63/144
f 55/67/145 56/68/146 59/69/147
f 56/68/148 57/70/149 59/69/150
f 57/70/151 58/71/152 59/69/153
f 58/71/154 55/72/155 59/69/156
f 60/73/157 61/74/158 64/75/159
f 61/74/160 62/76/161 64/75/162
f 62/76/163 63/77/164 64/75/165
f 63/77/166 60/78/167 64/75/168
