# This file uses centimeters as units for non-parametric coordinates.

mtllib credits_medium.mtl
g default
v 3.433538 0.000000 -3.865080
v 2.814598 0.000000 -2.816634
v 0.459346 0.000000 -3.934422
v -2.571617 0.000000 -2.949359
v -1.712844 0.000000 -1.433878
v 3.515567 0.000000 -1.358104
v 4.500629 0.000000 0.460474
v 3.995469 0.000000 1.799149
v 0.737184 0.000000 3.339888
v -3.632454 0.000000 2.708438
v -3.329357 0.000000 1.066666
v 0.206766 0.000000 1.748633
v 2.454730 0.000000 1.167698
v 2.075859 0.000000 -0.170977
v -2.268520 0.000000 -0.246751
v -4.036582 0.000000 -2.823069
v -3.026261 0.000000 -4.767937
v 0.737185 0.000000 -5.399387
v 3.433538 1.130870 -3.865080
v 2.814598 1.130870 -2.816634
v 0.459346 1.130870 -3.934422
v -2.571617 1.130870 -2.949359
v -1.712844 1.130870 -1.433878
v 3.515567 1.130870 -1.358104
v 4.500629 1.130870 0.460474
v 3.995469 1.130870 1.799149
v 0.737184 1.130870 3.339888
v -3.632454 1.130870 2.708438
v -3.329357 1.130870 1.066666
v 0.206766 1.130870 1.748633
v 2.454730 1.130870 1.167698
v 2.075859 1.130870 -0.170977
v -2.268520 1.130870 -0.246751
v -4.036582 1.130870 -2.823069
v -3.026261 1.130870 -4.767937
v 0.737185 1.130870 -5.399387
v -1.143636 -0.104698 4.041887
v -0.372207 -0.104698 4.041887
v -1.143636 0.728817 4.041887
v -0.372207 0.728817 4.041887
v -1.143636 0.728817 -6.440191
v -0.372207 0.728817 -6.440191
v -1.143636 -0.104698 -6.440191
v -0.372207 -0.104698 -6.440191
v 0.768576 -0.111830 4.164845
v 1.567603 -0.111830 4.164845
v 0.768576 0.747893 4.164845
v 1.567603 0.747893 4.164845
v 0.768576 0.747893 -6.562421
v 1.567603 0.747893 -6.562421
v 0.768576 -0.111830 -6.562421
v 1.567603 -0.111830 -6.562421
vt 0.505751 1.000000
vt 0.904797 0.672173
vt 0.454968 0.829295
vt 0.740333 0.615639
vt 0.983113 0.306779
vt 0.834067 0.393906
vt 0.215492 0.000000
vt 0.086393 0.194689
vt 0.383627 0.000000
vt 0.189550 0.309838
vt 0.000000 0.471488
vt 0.178414 0.548581
vt 0.096549 0.677190
vt 0.427068 0.732134
vt 0.364293 0.611601
vt 0.719163 0.358786
vt 0.712066 0.165443
vt 0.904674 0.180861
vt 0.505751 1.000000
vt 0.454968 0.829295
vt 0.904797 0.672173
vt 0.740333 0.615639
vt 0.983113 0.306779
vt 0.834067 0.393906
vt 0.215492 0.000000
vt 0.383627 0.000000
vt 0.086393 0.194689
vt 0.189550 0.309838
vt 0.000000 0.471488
vt 0.178414 0.548581
vt 0.096549 0.677190
vt 0.427068 0.732134
vt 0.364293 0.611601
vt 0.719163 0.358786
vt 0.712066 0.165443
vt 0.904674 0.180861
vt 0.215492 0.000000
vt 0.383627 0.000000
vt 0.189550 0.309838
vt 0.178414 0.548581
vt 0.364293 0.611601
vt 0.712066 0.165443
vt 0.904674 0.180861
vt 0.983113 0.306779
vt 0.904797 0.672173
vt 0.505751 1.000000
vt 0.454968 0.829295
vt 0.740333 0.615639
vt 0.834067 0.393906
vt 0.719163 0.358786
vt 0.427068 0.732134
vt 0.096549 0.677190
vt 0.000000 0.471488
vt 0.086393 0.194689
vt 0.375000 0.000000
vt 0.625000 0.000000
vt 0.625000 0.250000
vt 0.375000 0.250000
vt 0.625000 0.500000
vt 0.375000 0.500000
vt 0.625000 0.750000
vt 0.375000 0.750000
vt 0.625000 1.000000
vt 0.375000 1.000000
vt 0.875000 0.000000
vt 0.875000 0.250000
vt 0.125000 0.000000
vt 0.125000 0.250000
vt 0.375000 0.000000
vt 0.625000 0.000000
vt 0.625000 0.250000
vt 0.375000 0.250000
vt 0.625000 0.500000
vt 0.375000 0.500000
vt 0.625000 0.750000
vt 0.375000 0.750000
vt 0.625000 1.000000
vt 0.375000 1.000000
vt 0.875000 0.000000
vt 0.875000 0.250000
vt 0.125000 0.000000
vt 0.125000 0.250000
vn 0.000000 1.000000 0.000000
vn 0.000000 1.000000 -0.000000
vn 0.000000 1.000000 -0.000000
vn 0.000000 1.000000 -0.000000
vn 0.000000 1.000000 -0.000000
vn 0.000000 1.000000 0.000000
vn 0.000000 1.000000 0.000000
vn 0.000000 1.000000 0.000000
vn 0.000000 1.000000 0.000000
vn 0.000000 1.000000 0.000000
vn 0.000000 1.000000 0.000000
vn 0.000000 1.000000 -0.000000
vn 0.000000 1.000000 0.000000
vn 0.000000 1.000000 0.000000
vn 0.000000 1.000000 0.000000
vn 0.000000 1.000000 0.000000
vn 0.000000 1.000000 0.000000
vn 0.000000 1.000000 -0.000000
vn 0.000000 -1.000000 0.000000
vn 0.000000 -1.000000 0.000000
vn 0.000000 -1.000000 0.000000
vn 0.000000 -1.000000 0.000000
vn 0.000000 -1.000000 0.000000
vn 0.000000 -1.000000 0.000000
vn 0.000000 -1.000000 0.000000
vn 0.000000 -1.000000 0.000000
vn 0.000000 -1.000000 0.000000
vn 0.000000 -1.000000 0.000000
vn 0.000000 -1.000000 0.000000
vn 0.000000 -1.000000 0.000000
vn 0.000000 -1.000000 0.000000
vn 0.000000 -1.000000 0.000000
vn 0.000000 -1.000000 0.000000
vn 0.000000 -1.000000 0.000000
vn 0.000000 -1.000000 0.000000
vn 0.000000 -1.000000 0.000000
vn 0.861141 0.000000 0.508366
vn 0.861141 0.000000 0.508367
vn 0.861141 0.000000 0.508367
vn 0.861141 0.000000 0.508367
vn -0.428757 0.000000 0.903420
vn -0.428757 0.000000 0.903420
vn -0.428757 0.000000 0.903420
vn -0.428757 0.000000 0.903420
vn 0.309086 0.000000 0.951034
vn 0.309086 0.000000 0.951034
vn 0.309086 0.000000 0.951034
vn 0.309086 0.000000 0.951034
vn 0.870022 0.000000 -0.493013
vn 0.870022 0.000000 -0.493013
vn 0.870022 0.000000 -0.493013
vn 0.870022 0.000000 -0.493013
vn 0.014491 0.000000 -0.999895
vn 0.014491 0.000000 -0.999895
vn 0.014491 0.000000 -0.999895
vn 0.014491 0.000000 -0.999895
vn 0.879292 0.000000 -0.476283
vn 0.879292 0.000000 -0.476283
vn 0.879292 0.000000 -0.476283
vn 0.879292 0.000000 -0.476283
vn 0.935602 0.000000 0.353057
vn 0.935602 0.000000 0.353057
vn 0.935602 0.000000 0.353057
vn 0.935602 0.000000 0.353057
vn 0.427484 0.000000 0.904023
vn 0.427484 0.000000 0.904023
vn 0.427484 0.000000 0.904023
vn 0.427484 0.000000 0.904023
vn -0.143023 0.000000 0.989719
vn -0.143023 0.000000 0.989719
vn -0.143023 0.000000 0.989719
vn -0.143023 0.000000 0.989719
vn -0.983382 0.000000 -0.181548
vn -0.983382 0.000000 -0.181548
vn -0.983382 0.000000 -0.181548
vn -0.983382 0.000000 -0.181548
vn 0.189368 0.000000 -0.981906
vn 0.189368 0.000000 -0.981906
vn 0.043794 0.000000 -0.999041
vn -0.105985 0.000000 -0.994368
vn -0.250207 0.000000 -0.968192
vn -0.250207 0.000000 -0.968192
vn -0.962206 0.000000 0.272322
vn -0.962206 0.000000 0.272322
vn -0.962206 0.000000 0.272322
vn -0.962206 0.000000 0.272322
vn -0.017439 0.000000 0.999848
vn -0.017439 0.000000 0.999848
vn -0.017439 0.000000 0.999848
vn -0.017439 0.000000 0.999848
vn -0.824513 0.000000 0.565843
vn -0.824513 0.000000 0.565843
vn -0.824513 0.000000 0.565843
vn -0.824513 0.000000 0.565843
vn -0.887405 0.000000 -0.460990
vn -0.887405 0.000000 -0.460990
vn -0.887405 0.000000 -0.460990
vn -0.887405 0.000000 -0.460990
vn -0.165472 0.000000 -0.986215
vn -0.165472 0.000000 -0.986214
vn -0.165472 0.000000 -0.986214
vn -0.165472 0.000000 -0.986215
vn 0.494567 0.000000 -0.869140
vn 0.494567 0.000000 -0.869140
vn 0.494567 0.000000 -0.869140
vn 0.494567 0.000000 -0.869140
vn 0.000000 0.000000 1.000000
vn 0.000000 0.000000 1.000000
vn 0.000000 0.000000 1.000000
vn 0.000000 0.000000 1.000000
vn 0.000000 1.000000 0.000000
vn 0.000000 1.000000 0.000000
vn 0.000000 1.000000 0.000000
vn 0.000000 1.000000 0.000000
vn 0.000000 0.000000 -1.000000
vn 0.000000 0.000000 -1.000000
vn 0.000000 0.000000 -1.000000
vn 0.000000 0.000000 -1.000000
vn 0.000000 -1.000000 0.000000
vn 0.000000 -1.000000 0.000000
vn 0.000000 -1.000000 0.000000
vn 0.000000 -1.000000 0.000000
vn 1.000000 0.000000 0.000000
vn 1.000000 0.000000 0.000000
vn 1.000000 0.000000 0.000000
vn 1.000000 0.000000 0.000000
vn -1.000000 0.000000 0.000000
vn -1.000000 0.000000 0.000000
vn -1.000000 0.000000 0.000000
vn -1.000000 0.000000 0.000000
vn 0.000000 0.000000 1.000000
vn 0.000000 0.000000 1.000000
vn 0.000000 0.000000 1.000000
vn 0.000000 0.000000 1.000000
vn 0.000000 1.000000 0.000000
vn 0.000000 1.000000 0.000000
vn 0.000000 1.000000 0.000000
vn 0.000000 1.000000 0.000000
vn 0.000000 0.000000 -1.000000
vn 0.000000 0.000000 -1.000000
vn 0.000000 0.000000 -1.000000
vn 0.000000 0.000000 -1.000000
vn 0.000000 -1.000000 0.000000
vn 0.000000 -1.000000 0.000000
vn 0.000000 -1.000000 0.000000
vn 0.000000 -1.000000 0.000000
vn 1.000000 0.000000 0.000000
vn 1.000000 0.000000 0.000000
vn 1.000000 0.000000 0.000000
vn 1.000000 0.000000 0.000000
vn -1.000000 0.000000 0.000000
vn -1.000000 0.000000 0.000000
vn -1.000000 0.000000 0.000000
vn -1.000000 0.000000 0.000000
s 1
g polySurface5
usemtl initialShadingGroup
f 28/1/1 27/2/2 29/3/3
f 29/3/3 27/2/2 30/4/4
f 27/2/2 26/5/5 30/4/4
f 30/4/4 26/5/5 31/6/6
f 19/7/7 36/8/8 20/9/9
f 20/9/9 36/8/8 21/10/10
f 36/8/8 35/11/11 21/10/10
f 21/10/10 35/11/11 22/12/12
f 35/11/11 34/13/13 22/12/12
f 34/13/13 33/14/14 22/12/12
f 22/12/12 33/14/14 23/15/15
f 33/14/14 32/16/16 23/15/15
f 23/15/15 32/16/16 24/17/17
f 24/17/17 32/16/16 25/18/18
f 32/16/16 31/6/6 25/18/18
f 31/6/6 26/5/5 25/18/18
s 3
f 10/19/19 11/20/20 9/21/21
f 11/20/20 12/22/22 9/21/21
f 9/21/21 12/22/22 8/23/23
f 12/22/22 13/24/24 8/23/23
f 1/25/25 2/26/26 18/27/27
f 2/26/26 3/28/28 18/27/27
f 18/27/27 3/28/28 17/29/29
f 3/28/28 4/30/30 17/29/29
f 17/29/29 4/30/30 16/31/31
f 16/31/31 4/30/30 15/32/32
f 4/30/30 5/33/33 15/32/32
f 15/32/32 5/33/33 14/34/34
f 5/33/33 6/35/35 14/34/34
f 6/35/35 7/36/36 14/34/34
f 14/34/34 7/36/36 13/24/24
f 7/36/36 8/23/23 13/24/24
s 5
f 1/37/37 19/7/38 2/38/39
f 2/38/39 19/7/38 20/9/40
s 6
f 2/38/41 20/9/42 3/39/43
f 3/39/43 20/9/42 21/10/44
s 7
f 3/39/45 21/10/46 4/40/47
f 4/40/47 21/10/46 22/12/48
s 8
f 4/40/49 22/12/50 5/41/51
f 5/41/51 22/12/50 23/15/52
s 9
f 5/41/53 23/15/54 6/42/55
f 6/42/55 23/15/54 24/17/56
s 10
f 6/42/57 24/17/58 7/43/59
f 7/43/59 24/17/58 25/18/60
s 11
f 7/43/61 25/18/62 8/44/63
f 8/44/63 25/18/62 26/5/64
s 12
f 8/44/65 26/5/66 9/45/67
f 9/45/67 26/5/66 27/2/68
s 13
f 9/45/69 27/2/70 10/46/71
f 10/46/71 27/2/70 28/1/72
s 14
f 10/46/73 28/1/74 11/47/75
f 11/47/75 28/1/74 29/3/76
s 15
f 11/47/77 29/3/78 12/48/79
f 12/48/79 29/3/78 30/4/80
f 12/48/79 30/4/80 13/49/81
f 13/49/81 30/4/80 31/6/82
s 16
f 13/49/83 31/6/84 14/50/85
f 14/50/85 31/6/84 32/16/86
s 17
f 14/50/87 32/16/88 15/51/89
f 15/51/89 32/16/88 33/14/90
s 18
f 15/51/91 33/14/92 16/52/93
f 16/52/93 33/14/92 34/13/94
s 19
f 16/52/95 34/13/96 17/53/97
f 17/53/97 34/13/96 35/11/98
s 20
f 17/53/99 35/11/100 18/54/101
f 18/54/101 35/11/100 36/8/102
s 21
f 18/54/103 36/8/104 1/37/105
f 1/37/105 36/8/104 19/7/106
s off
f 37/55/107 38/56/108 40/57/109 39/58/110
f 39/58/111 40/57/112 42/59/113 41/60/114
f 41/60/115 42/59/116 44/61/117 43/62/118
f 43/62/119 44/61/120 38/63/121 37/64/122
f 38/56/123 44/65/124 42/66/125 40/57/126
f 43/67/127 37/55/128 39/58/129 41/68/130
f 45/69/131 46/70/132 48/71/133 47/72/134
f 47/72/135 48/71/136 50/73/137 49/74/138
f 49/74/139 50/73/140 52/75/141 51/76/142
f 51/76/143 52/75/144 46/77/145 45/78/146
f 46/70/147 52/79/148 50/80/149 48/71/150
f 51/81/151 45/69/152 47/72/153 49/82/154
