# This file uses centimeters as units for non-parametric coordinates.

mtllib credits_low.mtl
g default
v 3.433538 0.000000 -3.865080
v 2.814598 0.000000 -2.816634
v 0.459346 0.000000 -3.934422
v -2.571617 0.000000 -2.949359
v -1.712844 0.000000 -1.433878
v 3.515567 0.000000 -1.358104
v 4.500629 0.000000 0.460474
v 3.995469 0.000000 1.799149
v 0.737184 0.000000 3.339888
v -3.632454 0.000000 2.708438
v -3.329357 0.000000 1.066666
v 0.206766 0.000000 1.748633
v 2.454730 0.000000 1.167698
v 2.075859 0.000000 -0.170977
v -2.268520 0.000000 -0.246751
v -4.036582 0.000000 -2.823069
v -3.026261 0.000000 -4.767937
v 0.737185 0.000000 -5.399387
v 3.433538 1.130870 -3.865080
v 2.814598 1.130870 -2.816634
v 0.459346 1.130870 -3.934422
v -2.571617 1.130870 -2.949359
v -1.712844 1.130870 -1.433878
v 3.515567 1.130870 -1.358104
v 4.500629 1.130870 0.460474
v 3.995469 1.130870 1.799149
v 0.737184 1.130870 3.339888
v -3.632454 1.130870 2.708438
v -3.329357 1.130870 1.066666
v 0.206766 1.130870 1.748633
v 2.454730 1.130870 1.167698
v 2.075859 1.130870 -0.170977
v -2.268520 1.130870 -0.246751
v -4.036582 1.130870 -2.823069
v -3.026261 1.130870 -4.767937
v 0.737185 1.130870 -5.399387
v -0.382495 -0.104698 4.041887
v 0.388934 -0.104698 4.041887
v -0.382495 0.728817 4.041887
v 0.388934 0.728817 4.041887
v -0.382495 0.728817 -6.440191
v 0.388934 0.728817 -6.440191
v -0.382495 -0.104698 -6.440191
v 0.388934 -0.104698 -6.440191
vt 0.215492 0.000000
vt 0.383627 0.000000
vt 0.189550 0.309838
vt 0.178414 0.548581
vt 0.364293 0.611601
vt 0.712066 0.165443
vt 0.904674 0.180861
vt 0.983113 0.306779
vt 0.904797 0.672173
vt 0.505751 1.000000
vt 0.454968 0.829295
vt 0.740333 0.615639
vt 0.834067 0.393906
vt 0.719163 0.358786
vt 0.427068 0.732134
vt 0.096549 0.677190
vt 0.000000 0.471488
vt 0.086393 0.194689
vt 0.215492 0.000000
vt 0.383627 0.000000
vt 0.189550 0.309838
vt 0.178414 0.548581
vt 0.364293 0.611601
vt 0.712066 0.165443
vt 0.904674 0.180861
vt 0.983113 0.306779
vt 0.904797 0.672173
vt 0.505751 1.000000
vt 0.454968 0.829295
vt 0.740333 0.615639
vt 0.834067 0.393906
vt 0.719163 0.358786
vt 0.427068 0.732134
vt 0.096549 0.677190
vt 0.000000 0.471488
vt 0.086393 0.194689
vt 0.215492 0.000000
vt 0.383627 0.000000
vt 0.189550 0.309838
vt 0.178414 0.548581
vt 0.364293 0.611601
vt 0.712066 0.165443
vt 0.904674 0.180861
vt 0.983113 0.306779
vt 0.904797 0.672173
vt 0.505751 1.000000
vt 0.454968 0.829295
vt 0.740333 0.615639
vt 0.834067 0.393906
vt 0.719163 0.358786
vt 0.427068 0.732134
vt 0.096549 0.677190
vt 0.000000 0.471488
vt 0.086393 0.194689
vt 0.375000 0.000000
vt 0.625000 0.000000
vt 0.625000 0.250000
vt 0.375000 0.250000
vt 0.625000 0.500000
vt 0.375000 0.500000
vt 0.625000 0.750000
vt 0.375000 0.750000
vt 0.625000 1.000000
vt 0.375000 1.000000
vt 0.875000 0.000000
vt 0.875000 0.250000
vt 0.125000 0.000000
vt 0.125000 0.250000
vn 0.000000 1.000000 0.000000
vn 0.000000 1.000000 -0.000000
vn 0.000000 1.000000 -0.000000
vn 0.000000 1.000000 -0.000000
vn 0.000000 1.000000 -0.000000
vn 0.000000 1.000000 0.000000
vn 0.000000 1.000000 0.000000
vn 0.000000 1.000000 0.000000
vn 0.000000 1.000000 0.000000
vn 0.000000 1.000000 0.000000
vn 0.000000 1.000000 0.000000
vn 0.000000 1.000000 -0.000000
vn 0.000000 1.000000 0.000000
vn 0.000000 1.000000 0.000000
vn 0.000000 1.000000 0.000000
vn 0.000000 1.000000 0.000000
vn 0.000000 1.000000 0.000000
vn 0.000000 1.000000 -0.000000
vn 0.000000 -1.000000 0.000000
vn 0.000000 -1.000000 0.000000
vn 0.000000 -1.000000 0.000000
vn 0.000000 -1.000000 0.000000
vn 0.000000 -1.000000 0.000000
vn 0.000000 -1.000000 0.000000
vn 0.000000 -1.000000 0.000000
vn 0.000000 -1.000000 0.000000
vn 0.000000 -1.000000 0.000000
vn 0.000000 -1.000000 0.000000
vn 0.000000 -1.000000 0.000000
vn 0.000000 -1.000000 0.000000
vn 0.000000 -1.000000 0.000000
vn 0.000000 -1.000000 0.000000
vn 0.000000 -1.000000 0.000000
vn 0.000000 -1.000000 0.000000
vn 0.000000 -1.000000 0.000000
vn 0.000000 -1.000000 0.000000
vn 0.861141 0.000000 0.508366
vn 0.861141 0.000000 0.508367
vn 0.861141 0.000000 0.508367
vn 0.861141 0.000000 0.508367
vn -0.428757 0.000000 0.903420
vn -0.428757 0.000000 0.903420
vn -0.428757 0.000000 0.903420
vn -0.428757 0.000000 0.903420
vn 0.309086 0.000000 0.951034
vn 0.309086 0.000000 0.951034
vn 0.309086 0.000000 0.951034
vn 0.309086 0.000000 0.951034
vn 0.870022 0.000000 -0.493013
vn 0.870022 0.000000 -0.493013
vn 0.870022 0.000000 -0.493013
vn 0.870022 0.000000 -0.493013
vn 0.014491 0.000000 -0.999895
vn 0.014491 0.000000 -0.999895
vn 0.014491 0.000000 -0.999895
vn 0.014491 0.000000 -0.999895
vn 0.879292 0.000000 -0.476283
vn 0.879292 0.000000 -0.476283
vn 0.879292 0.000000 -0.476283
vn 0.879292 0.000000 -0.476283
vn 0.935602 0.000000 0.353057
vn 0.935602 0.000000 0.353057
vn 0.935602 0.000000 0.353057
vn 0.935602 0.000000 0.353057
vn 0.427484 0.000000 0.904023
vn 0.427484 0.000000 0.904023
vn 0.427484 0.000000 0.904023
vn 0.427484 0.000000 0.904023
vn -0.143023 0.000000 0.989719
vn -0.143023 0.000000 0.989719
vn -0.143023 0.000000 0.989719
vn -0.143023 0.000000 0.989719
vn -0.983382 0.000000 -0.181548
vn -0.983382 0.000000 -0.181548
vn -0.983382 0.000000 -0.181548
vn -0.983382 0.000000 -0.181548
vn 0.189368 0.000000 -0.981906
vn 0.189368 0.000000 -0.981906
vn 0.043794 0.000000 -0.999041
vn -0.105985 0.000000 -0.994368
vn -0.250207 0.000000 -0.968192
vn -0.250207 0.000000 -0.968192
vn -0.962206 0.000000 0.272322
vn -0.962206 0.000000 0.272322
vn -0.962206 0.000000 0.272322
vn -0.962206 0.000000 0.272322
vn -0.017439 0.000000 0.999848
vn -0.017439 0.000000 0.999848
vn -0.017439 0.000000 0.999848
vn -0.017439 0.000000 0.999848
vn -0.824513 0.000000 0.565843
vn -0.824513 0.000000 0.565843
vn -0.824513 0.000000 0.565843
vn -0.824513 0.000000 0.565843
vn -0.887405 0.000000 -0.460990
vn -0.887405 0.000000 -0.460990
vn -0.887405 0.000000 -0.460990
vn -0.887405 0.000000 -0.460990
vn -0.165472 0.000000 -0.986215
vn -0.165472 0.000000 -0.986214
vn -0.165472 0.000000 -0.986214
vn -0.165472 0.000000 -0.986215
vn 0.494567 0.000000 -0.869140
vn 0.494567 0.000000 -0.869140
vn 0.494567 0.000000 -0.869140
vn 0.494567 0.000000 -0.869140
vn 0.000000 0.000000 1.000000
vn 0.000000 0.000000 1.000000
vn 0.000000 0.000000 1.000000
vn 0.000000 0.000000 1.000000
vn 0.000000 1.000000 0.000000
vn 0.000000 1.000000 0.000000
vn 0.000000 1.000000 0.000000
vn 0.000000 1.000000 0.000000
vn 0.000000 0.000000 -1.000000
vn 0.000000 0.000000 -1.000000
vn 0.000000 0.000000 -1.000000
vn 0.000000 0.000000 -1.000000
vn 0.000000 -1.000000 0.000000
vn 0.000000 -1.000000 0.000000
vn 0.000000 -1.000000 0.000000
vn 0.000000 -1.000000 0.000000
vn 1.000000 0.000000 0.000000
vn 1.000000 0.000000 0.000000
vn 1.000000 0.000000 0.000000
vn 1.000000 0.000000 0.000000
vn -1.000000 0.000000 0.000000
vn -1.000000 0.000000 0.000000
vn -1.000000 0.000000 0.000000
vn -1.000000 0.000000 0.000000
s 1
g polySurface2
usemtl initialShadingGroup
f 28/46/1 27/45/2 29/47/3
f 29/47/3 27/45/2 30/48/4
f 27/45/2 26/44/5 30/48/4
f 30/48/4 26/44/5 31/49/6
f 19/37/7 36/54/8 20/38/9
f 20/38/9 36/54/8 21/39/10
f 36/54/8 35/53/11 21/39/10
f 21/39/10 35/53/11 22/40/12
f 35/53/11 34/52/13 22/40/12
f 34/52/13 33/51/14 22/40/12
f 22/40/12 33/51/14 23/41/15
f 33/51/14 32/50/16 23/41/15
f 23/41/15 32/50/16 24/42/17
f 24/42/17 32/50/16 25/43/18
f 32/50/16 31/49/6 25/43/18
f 31/49/6 26/44/5 25/43/18
s 3
f 10/28/19 11/29/20 9/27/21
f 11/29/20 12/30/22 9/27/21
f 9/27/21 12/30/22 8/26/23
f 12/30/22 13/31/24 8/26/23
f 1/19/25 2/20/26 18/36/27
f 2/20/26 3/21/28 18/36/27
f 18/36/27 3/21/28 17/35/29
f 3/21/28 4/22/30 17/35/29
f 17/35/29 4/22/30 16/34/31
f 16/34/31 4/22/30 15/33/32
f 4/22/30 5/23/33 15/33/32
f 15/33/32 5/23/33 14/32/34
f 5/23/33 6/24/35 14/32/34
f 6/24/35 7/25/36 14/32/34
f 14/32/34 7/25/36 13/31/24
f 7/25/36 8/26/23 13/31/24
s 5
f 1/1/37 19/37/38 2/2/39
f 2/2/39 19/37/38 20/38/40
s 6
f 2/2/41 20/38/42 3/3/43
f 3/3/43 20/38/42 21/39/44
s 7
f 3/3/45 21/39/46 4/4/47
f 4/4/47 21/39/46 22/40/48
s 8
f 4/4/49 22/40/50 5/5/51
f 5/5/51 22/40/50 23/41/52
s 9
f 5/5/53 23/41/54 6/6/55
f 6/6/55 23/41/54 24/42/56
s 10
f 6/6/57 24/42/58 7/7/59
f 7/7/59 24/42/58 25/43/60
s 11
f 7/7/61 25/43/62 8/8/63
f 8/8/63 25/43/62 26/44/64
s 12
f 8/8/65 26/44/66 9/9/67
f 9/9/67 26/44/66 27/45/68
s 13
f 9/9/69 27/45/70 10/10/71
f 10/10/71 27/45/70 28/46/72
s 14
f 10/10/73 28/46/74 11/11/75
f 11/11/75 28/46/74 29/47/76
s 15
f 11/11/77 29/47/78 12/12/79
f 12/12/79 29/47/78 30/48/80
f 12/12/79 30/48/80 13/13/81
f 13/13/81 30/48/80 31/49/82
s 16
f 13/13/83 31/49/84 14/14/85
f 14/14/85 31/49/84 32/50/86
s 17
f 14/14/87 32/50/88 15/15/89
f 15/15/89 32/50/88 33/51/90
s 18
f 15/15/91 33/51/92 16/16/93
f 16/16/93 33/51/92 34/52/94
s 19
f 16/16/95 34/52/96 17/17/97
f 17/17/97 34/52/96 35/53/98
s 20
f 17/17/99 35/53/100 18/18/101
f 18/18/101 35/53/100 36/54/102
s 21
f 18/18/103 36/54/104 1/1/105
f 1/1/105 36/54/104 19/37/106
s off
f 37/55/107 38/56/108 40/57/109 39/58/110
f 39/58/111 40/57/112 42/59/113 41/60/114
f 41/60/115 42/59/116 44/61/117 43/62/118
f 43/62/119 44/61/120 38/63/121 37/64/122
f 38/56/123 44/65/124 42/66/125 40/57/126
f 43/67/127 37/55/128 39/58/129 41/68/130
