# This file uses centimeters as units for non-parametric coordinates.

mtllib asteroid_mesh.mtl
g default
v -6.335007 -8.207096 4.178559
v 4.164276 -6.205966 7.792532
v -11.772007 3.741660 7.755538
v 5.809113 0.829112 5.279067
v -7.380573 1.210015 -2.149483
v 7.253227 1.304420 -5.156043
v -6.264336 -7.484680 -4.965452
v 6.946758 -7.478236 -4.920725
v -0.372711 -8.319106 6.917451
v -1.631058 4.909946 6.049566
v -0.715031 4.710266 -6.819043
v 0.271671 -6.619132 -6.326700
v -11.080170 -2.369366 7.382849
v 6.655365 -3.281761 8.890431
v -11.235989 4.002455 1.521159
v 12.005978 4.133520 -2.792372
v -8.882641 -3.759421 -5.372396
v 9.433422 -3.531716 -6.728940
v -8.537502 -9.919438 -0.509448
v 8.105068 -9.771056 0.998178
v -0.031891 -2.901881 8.267556
v -2.846958 10.994915 -2.395556
v 0.358528 -2.590232 -8.577943
v 0.231464 -10.959281 -0.190046
v 11.794750 -3.856816 0.191973
v -12.057514 -3.348103 0.011095
vt 0.548238 0.760542
vt 0.592258 0.666030
vt 0.653174 0.614136
vt 0.661087 0.753443
vt 0.738809 0.631765
vt 0.823820 0.786756
vt 0.799483 0.998008
vt 0.672180 0.983596
vt 0.550571 0.884747
vt 0.807646 0.502675
vt 0.950579 0.812085
vt 0.144831 0.001992
vt 0.203766 0.100999
vt 0.132817 0.266991
vt 0.001897 0.311402
vt 0.205733 0.405845
vt 0.147562 0.486159
vt 0.312061 0.636947
vt 0.300895 0.507075
vt 0.512147 0.542613
vt 0.486818 0.718538
vt 0.304510 0.055582
vt 0.284898 0.244627
vt 0.386723 0.107384
vt 0.368826 0.246436
vt 0.386857 0.382592
vt 0.309254 0.437135
vt 0.474545 0.242036
vt 0.503834 0.102983
vt 0.627134 0.078854
vt 0.602382 0.242874
vt 0.768671 0.160947
vt 0.750442 0.255460
vt 0.693387 0.379664
vt 0.595728 0.425545
vt 0.437577 0.429945
vt 0.459238 0.247274
vt 0.466166 0.051182
vt 0.610340 0.001992
vt 0.311283 0.006392
vt 0.641194 0.507075
vt 0.517991 0.583937
vt 0.760137 0.478513
vt 0.606572 0.498873
vt 0.162316 0.514838
vt 0.289619 0.507075
vt 0.295051 0.636947
vt 0.141928 0.668404
vt 0.300685 0.503273
vn -0.076709 -0.683132 0.726255
vn 0.285427 -0.615873 0.734325
vn 0.454751 0.017318 0.890450
vn -0.028192 -0.024476 0.999303
vn 0.454751 0.017318 0.890450
vn 0.458680 0.547666 0.699768
vn 0.087402 0.618946 0.780555
vn -0.028192 -0.024476 0.999303
vn 0.087402 0.618946 0.780555
vn -0.577179 0.478069 0.662053
vn -0.623016 -0.288301 0.727141
vn -0.028192 -0.024476 0.999303
vn -0.623016 -0.288301 0.727141
vn -0.399762 -0.714523 0.574149
vn -0.076709 -0.683132 0.726255
vn -0.028192 -0.024476 0.999303
vn 0.087402 0.618946 0.780555
vn 0.458680 0.547666 0.699768
vn 0.793486 0.597720 -0.114504
vn -0.082611 0.965075 -0.248606
vn 0.793486 0.597720 -0.114504
vn 0.471171 0.316102 -0.823455
vn -0.154423 0.400879 -0.903023
vn -0.082611 0.965075 -0.248606
vn -0.154423 0.400879 -0.903023
vn -0.593062 0.328280 -0.735194
vn -0.815239 0.488432 -0.311158
vn -0.082611 0.965075 -0.248606
vn -0.815239 0.488432 -0.311158
vn -0.577179 0.478069 0.662053
vn 0.087402 0.618946 0.780555
vn -0.082611 0.965075 -0.248606
vn -0.154423 0.400879 -0.903023
vn 0.471171 0.316102 -0.823455
vn 0.570022 -0.196816 -0.797709
vn -0.089959 -0.056331 -0.994351
vn 0.570022 -0.196816 -0.797709
vn 0.363329 -0.700139 -0.614652
vn -0.007394 -0.675144 -0.737649
vn -0.089959 -0.056331 -0.994351
vn -0.007394 -0.675144 -0.737649
vn -0.365496 -0.602147 -0.709811
vn -0.595934 -0.028482 -0.802528
vn -0.089959 -0.056331 -0.994351
vn -0.595934 -0.028482 -0.802528
vn -0.593062 0.328280 -0.735194
vn -0.154423 0.400879 -0.903023
vn -0.089959 -0.056331 -0.994351
vn -0.007394 -0.675144 -0.737649
vn 0.363329 -0.700139 -0.614652
vn 0.520138 -0.852533 0.051410
vn 0.020843 -0.997696 -0.064565
vn 0.520138 -0.852533 0.051410
vn 0.285427 -0.615873 0.734325
vn -0.076709 -0.683132 0.726255
vn 0.020843 -0.997696 -0.064565
vn -0.076709 -0.683132 0.726255
vn -0.399762 -0.714523 0.574149
vn -0.512448 -0.851569 -0.110575
vn 0.020843 -0.997696 -0.064565
vn -0.512448 -0.851569 -0.110575
vn -0.365496 -0.602147 -0.709811
vn -0.007394 -0.675144 -0.737649
vn 0.020843 -0.997696 -0.064565
vn 0.520138 -0.852533 0.051410
vn 0.363329 -0.700139 -0.614652
vn 0.570022 -0.196816 -0.797709
vn 0.975097 -0.215698 0.051570
vn 0.570022 -0.196816 -0.797709
vn 0.471171 0.316102 -0.823455
vn 0.793486 0.597720 -0.114504
vn 0.975097 -0.215698 0.051570
vn 0.793486 0.597720 -0.114504
vn 0.458680 0.547666 0.699768
vn 0.454751 0.017318 0.890450
vn 0.975097 -0.215698 0.051570
vn 0.454751 0.017318 0.890450
vn 0.285427 -0.615873 0.734325
vn 0.520138 -0.852533 0.051410
vn 0.975097 -0.215698 0.051570
vn -0.512448 -0.851569 -0.110575
vn -0.399762 -0.714523 0.574149
vn -0.623016 -0.288301 0.727141
vn -0.950914 -0.196216 -0.239295
vn -0.623016 -0.288301 0.727141
vn -0.577179 0.478069 0.662053
vn -0.815239 0.488432 -0.311158
vn -0.950914 -0.196216 -0.239295
vn -0.815239 0.488432 -0.311158
vn -0.593062 0.328280 -0.735194
vn -0.595934 -0.028482 -0.802528
vn -0.950914 -0.196216 -0.239295
vn -0.595934 -0.028482 -0.802528
vn -0.365496 -0.602147 -0.709811
vn -0.512448 -0.851569 -0.110575
vn -0.950914 -0.196216 -0.239295
s off
g rock
usemtl asteroid_mesh_initialShadingGroup
f 9/1/1 2/2/2 14/3/3 21/4/4
f 14/3/5 4/5/6 10/6/7 21/4/8
f 10/6/9 3/7/10 13/8/11 21/4/12
f 13/8/13 1/9/14 9/1/15 21/4/16
f 10/6/17 4/5/18 16/10/19 22/11/20
f 16/12/21 6/13/22 11/14/23 22/15/24
f 11/14/25 5/16/26 15/17/27 22/15/28
f 15/18/29 3/19/30 10/20/31 22/21/32
f 11/14/33 6/13/34 18/22/35 23/23/36
f 18/22/37 8/24/38 12/25/39 23/23/40
f 12/25/41 7/26/42 17/27/43 23/23/44
f 17/27/45 5/16/46 11/14/47 23/23/48
f 12/28/49 8/29/50 20/30/51 24/31/52
f 20/30/53 2/32/54 9/33/55 24/31/56
f 9/33/57 1/34/58 19/35/59 24/31/60
f 19/36/61 7/26/62 12/25/63 24/37/64
f 20/30/65 8/29/66 18/38/67 25/39/68
f 18/22/69 6/13/70 16/12/71 25/40/72
f 16/10/73 4/5/74 14/3/75 25/41/76
f 14/3/77 2/2/78 20/42/79 25/41/80
f 19/35/81 1/34/82 13/43/83 26/44/84
f 13/45/85 3/46/86 15/47/87 26/48/88
f 15/17/89 5/16/90 17/27/91 26/49/92
f 17/27/93 7/26/94 19/36/95 26/49/96
